<svg width="18" height="18" viewBox="0 0 18 18" fill="none" xmlns="http://www.w3.org/2000/svg">
<path d="M6.9975 8.0466C7.10456 7.93954 7.11474 7.76973 7.0243 7.64831C6.58758 7.06191 6.20264 6.4344 5.87609 5.77241L7.13334 4.84069C7.59 4.50227 7.67313 3.85176 7.31624 3.40937L4.88637 0.397429C4.56103 -0.00585207 3.98152 -0.0938192 3.55116 0.194749L2.21832 1.08845C0.795972 2.04216 0.272591 3.885 0.981323 5.44395L1.49941 6.58357L1.50019 6.58527C2.16371 8.03041 3.00628 9.373 4.00034 10.5855C4.11146 10.721 4.31496 10.7291 4.43889 10.6052L6.9975 8.0466Z" fill="white"/>
<path d="M16.4971 0.668335L0.53033 16.6351C0.521358 16.6441 0.512216 16.6528 0.502913 16.6612L0.46967 16.6944C0.176777 16.9873 0.176777 17.4622 0.46967 17.7551C0.762563 18.048 1.23744 18.048 1.53033 17.7551L6.3299 12.9555C7.73993 14.1527 9.33379 15.1416 11.0661 15.8767L11.7457 16.1795C13.3005 16.8722 15.1283 16.3459 16.0766 14.9324L16.9647 13.6087C17.2535 13.1783 17.1656 12.5987 16.7622 12.2732L13.7503 9.84346C13.308 9.48657 12.6574 9.56969 12.319 10.0264L11.3873 11.2836C10.6475 10.9187 9.95069 10.4808 9.30623 9.97919L17.5303 1.75509C17.8232 1.4622 17.8232 0.987325 17.5303 0.694431C17.2464 0.410512 16.7915 0.401813 16.4971 0.668335Z" fill="white"/>
</svg>
