<svg width="18" height="18" viewBox="0 0 18 18" fill="none" xmlns="http://www.w3.org/2000/svg">
<path d="M1.59947 7.33124C3.51587 11.5051 6.92588 14.8236 11.1654 16.6226L11.845 16.9254C13.3998 17.6182 15.2276 17.0919 16.1759 15.6784L17.064 14.3547C17.3527 13.9243 17.2648 13.3446 16.8615 13.0192L13.8496 10.5894C13.4072 10.2325 12.7567 10.3157 12.4183 10.7723L11.4866 12.0296C9.09577 10.8502 7.15471 8.90919 5.97537 6.51838L7.23262 5.58666C7.68928 5.24824 7.77241 4.59773 7.41552 4.15534L4.98565 1.1434C4.66031 0.74012 4.0808 0.652152 3.65044 0.940721L2.3176 1.83442C0.895251 2.78813 0.37187 4.63098 1.0806 6.18993L1.59869 7.32954L1.59947 7.33124Z" fill="white"/>
</svg>
