<svg width="15" height="15" viewBox="0 0 15 15" fill="none" xmlns="http://www.w3.org/2000/svg">
<path d="M8.47826 0.978261C8.47826 0.437982 8.04028 0 7.5 0C6.95972 0 6.52174 0.437982 6.52174 0.978261V6.52174H0.978261C0.437983 6.52174 0 6.95972 0 7.5C0 8.04028 0.437983 8.47826 0.978261 8.47826H6.52174V14.0217C6.52174 14.562 6.95972 15 7.5 15C8.04028 15 8.47826 14.562 8.47826 14.0217V8.47826H14.0217C14.562 8.47826 15 8.04028 15 7.5C15 6.95972 14.562 6.52174 14.0217 6.52174H8.47826V0.978261Z" fill="white"/>
</svg>
