<svg width="71" height="60" viewBox="0 0 71 60" fill="none" xmlns="http://www.w3.org/2000/svg">
<path d="M21.1025 0C21.4104 -3.40802e-06 21.7156 0.0614935 22 0.181641C22.2844 0.30183 22.5431 0.478153 22.7607 0.700195C22.9784 0.922282 23.1508 1.18642 23.2686 1.47656C23.3863 1.76671 23.4473 2.07757 23.4473 2.3916V57.4082C23.4472 58.0425 23.2004 58.6511 22.7607 59.0996C22.321 59.5481 21.7244 59.7997 21.1025 59.7998C20.4807 59.7998 19.8841 59.548 19.4443 59.0996C19.0046 58.6511 18.7569 58.0425 18.7568 57.4082V2.3916C18.7568 2.0776 18.8178 1.76669 18.9355 1.47656C19.0534 1.18633 19.2266 0.922325 19.4443 0.700195C19.6621 0.478131 19.9206 0.301808 20.2051 0.181641C20.4895 0.0615189 20.7947 -4.96224e-05 21.1025 0ZM11.7227 10.7871C12.0306 10.7871 12.3356 10.8482 12.6201 10.9678C12.9047 11.0874 13.1631 11.2633 13.3809 11.4844C13.5986 11.7054 13.7718 11.968 13.8896 12.2568C14.0074 12.5456 14.0674 12.8555 14.0674 13.168V46.6318C14.0673 47.2631 13.8206 47.869 13.3809 48.3154C12.9411 48.7618 12.3445 49.0127 11.7227 49.0127C11.1008 49.0127 10.5042 48.7618 10.0645 48.3154C9.62475 47.869 9.37802 47.2631 9.37793 46.6318V13.168C9.37788 12.8554 9.43794 12.5456 9.55566 12.2568C9.67348 11.968 9.84673 11.7054 10.0645 11.4844C10.2822 11.2633 10.5407 11.0874 10.8252 10.9678C11.1097 10.8482 11.4147 10.7871 11.7227 10.7871ZM30.4854 10.7871C30.7932 10.7871 31.0984 10.8483 31.3828 10.9678C31.6673 11.0874 31.9258 11.2633 32.1436 11.4844C32.3613 11.7055 32.5345 11.968 32.6523 12.2568C32.7701 12.5456 32.8311 12.8554 32.8311 13.168V46.6318C32.831 47.2631 32.5833 47.869 32.1436 48.3154C31.7038 48.7617 31.1071 49.0127 30.4854 49.0127C29.8636 49.0126 29.2668 48.7618 28.8271 48.3154C28.3874 47.869 28.1407 47.2631 28.1406 46.6318V13.168C28.1406 12.8554 28.2016 12.5457 28.3193 12.2568C28.4371 11.9681 28.6095 11.7054 28.8271 11.4844C29.0449 11.2633 29.3034 11.0874 29.5879 10.9678C29.8723 10.8482 30.1775 10.7871 30.4854 10.7871ZM49.2432 10.7871C49.551 10.7871 49.8562 10.8482 50.1406 10.9678C50.4251 11.0874 50.6836 11.2633 50.9014 11.4844C51.119 11.7054 51.2914 11.9681 51.4092 12.2568C51.527 12.5457 51.5879 12.8554 51.5879 13.168V46.6318C51.5878 47.2631 51.3411 47.869 50.9014 48.3154C50.4617 48.7618 49.865 49.0126 49.2432 49.0127C48.6214 49.0127 48.0247 48.7617 47.585 48.3154C47.1453 47.869 46.8976 47.2631 46.8975 46.6318V13.168C46.8974 12.8554 46.9584 12.5456 47.0762 12.2568C47.194 11.968 47.3672 11.7055 47.585 11.4844C47.8027 11.2633 48.0612 11.0874 48.3457 10.9678C48.6301 10.8482 48.9353 10.7871 49.2432 10.7871ZM2.34473 19.9326C2.65254 19.9326 2.95778 19.994 3.24219 20.1133C3.52665 20.2326 3.7852 20.4083 4.00293 20.6289C4.22063 20.8495 4.39389 21.1112 4.51172 21.3994C4.62955 21.6877 4.69048 21.9975 4.69043 22.3096V37.4902C4.69043 37.8022 4.62951 38.1112 4.51172 38.3994C4.39387 38.6877 4.22069 38.9503 4.00293 39.1709C3.78525 39.3914 3.52655 39.5662 3.24219 39.6855C2.95774 39.8049 2.6526 39.8662 2.34473 39.8662C2.03688 39.8662 1.73168 39.8049 1.44727 39.6855C1.1629 39.5661 0.904189 39.3914 0.686523 39.1709C0.468765 38.9503 0.296561 38.6877 0.178711 38.3994C0.0608906 38.1112 -1.29778e-08 37.8022 0 37.4902V22.3096C-4.91219e-05 21.9975 0.0608781 21.6877 0.178711 21.3994C0.296511 21.1113 0.468927 20.8494 0.686523 20.6289C0.904263 20.4083 1.16277 20.2327 1.44727 20.1133C1.7317 19.9939 2.03687 19.9326 2.34473 19.9326ZM39.8672 19.9326C40.1751 19.9326 40.4802 19.994 40.7646 20.1133C41.0492 20.2327 41.3076 20.4083 41.5254 20.6289C41.7431 20.8495 41.9163 21.1112 42.0342 21.3994C42.152 21.6877 42.212 21.9975 42.2119 22.3096V37.4902C42.2119 38.1204 41.9652 38.7253 41.5254 39.1709C41.0856 39.6164 40.489 39.8662 39.8672 39.8662C39.2453 39.8662 38.6487 39.6164 38.209 39.1709C37.7692 38.7253 37.5225 38.1204 37.5225 37.4902V22.3096C37.5224 21.9975 37.5824 21.6877 37.7002 21.3994C37.818 21.1112 37.9913 20.8495 38.209 20.6289C38.4268 20.4083 38.6852 20.2327 38.9697 20.1133C39.2542 19.9939 39.5593 19.9326 39.8672 19.9326ZM58.6201 19.9326C58.9279 19.9326 59.2332 19.994 59.5176 20.1133C59.802 20.2326 60.0606 20.4083 60.2783 20.6289C60.496 20.8495 60.6693 21.1112 60.7871 21.3994C60.9049 21.6877 60.9659 21.9975 60.9658 22.3096V37.4902C60.9658 38.1204 60.7181 38.7253 60.2783 39.1709C59.8386 39.6163 59.2419 39.8662 58.6201 39.8662C57.9983 39.8661 57.4016 39.6164 56.9619 39.1709C56.5221 38.7253 56.2754 38.1204 56.2754 37.4902V22.3096C56.2753 21.9975 56.3363 21.6877 56.4541 21.3994C56.5719 21.1113 56.7443 20.8494 56.9619 20.6289C57.1797 20.4083 57.4382 20.2327 57.7227 20.1133C58.0071 19.9939 58.3123 19.9326 58.6201 19.9326ZM68.0098 27.4375C69.3049 27.4375 70.3545 28.4881 70.3545 29.7832C70.3544 31.0782 69.3048 32.1279 68.0098 32.1279C66.7148 32.1278 65.6652 31.0782 65.665 29.7832C65.665 28.4881 66.7147 27.4376 68.0098 27.4375Z" fill="white"/>
</svg>
