<svg width="18" height="19" viewBox="0 0 18 19" fill="none" xmlns="http://www.w3.org/2000/svg">
<path fill-rule="evenodd" clip-rule="evenodd" d="M15.4286 18.5H3.27273C1.46525 18.5 0 16.9594 0 15.059V2.22244C0 1.17289 0.987277 0.507511 1.85601 0.824624C1.98011 0.869925 2.1018 0.935278 2.21784 1.02243L2.38152 1.14535C3.19318 1.75491 4.29093 1.75221 5.10488 1.14094C6.24279 0.286354 7.78318 0.286354 8.9211 1.14094C9.73504 1.75221 10.8328 1.75491 11.6445 1.14535L11.8081 1.02243C12.7365 0.325242 14.026 1.02296 14.026 2.22244V9.65179H17.2987C17.686 9.65179 18 9.98191 18 10.3891V15.7964C18 17.2895 16.8487 18.5 15.4286 18.5ZM14.2597 11.1265V15.7964C14.2597 16.4751 14.783 17.0253 15.4286 17.0253C16.0741 17.0253 16.5974 16.4751 16.5974 15.7964V11.1265H14.2597ZM10.2857 6.94817C10.2857 6.54094 9.97173 6.21082 9.58442 6.21082H3.97403C3.58671 6.21082 3.27273 6.54094 3.27273 6.94817C3.27273 7.3554 3.58671 7.68552 3.97403 7.68552H9.58442C9.97173 7.68552 10.2857 7.3554 10.2857 6.94817ZM9.35065 9.89757C9.35065 9.49035 9.03667 9.16022 8.64935 9.16022H3.97403C3.58671 9.16022 3.27273 9.49035 3.27273 9.89757C3.27273 10.3048 3.58671 10.6349 3.97403 10.6349H8.64935C9.03667 10.6349 9.35065 10.3048 9.35065 9.89757ZM9.58442 12.1096C9.97173 12.1096 10.2857 12.4397 10.2857 12.847C10.2857 13.2542 9.97173 13.5843 9.58442 13.5843H3.97403C3.58671 13.5843 3.27273 13.2542 3.27273 12.847C3.27273 12.4397 3.58671 12.1096 3.97403 12.1096H9.58442Z" fill="#1C1C1C"/>
</svg>
