<svg width="20" height="20" viewBox="0 0 20 20" fill="none" xmlns="http://www.w3.org/2000/svg">
<path d="M14.87 0.229244C15.0523 0.246548 15.1309 0.467533 15.0014 0.596804L5.95006 9.63296C5.84755 9.73529 5.77421 9.86305 5.73757 10.0031L4.64968 14.161C4.57648 14.4408 4.65735 14.7383 4.86217 14.9428C5.06699 15.1473 5.36506 15.228 5.64532 15.155L9.81023 14.0689C9.95049 14.0323 10.0785 13.9591 10.181 13.8568L19.3605 4.69263C19.4893 4.56405 19.7095 4.64098 19.7285 4.82182C20.111 8.45923 20.0893 12.1283 19.6636 15.7621C19.4212 17.8311 17.7554 19.4557 15.6902 19.6861C11.939 20.1046 8.06099 20.1046 4.30981 19.6861C2.24456 19.4557 0.578785 17.8311 0.336388 15.7621C-0.112129 11.9338 -0.112129 8.06624 0.336388 4.23786C0.578785 2.16885 2.24456 0.544343 4.30981 0.313909C7.78822 -0.0742018 11.3757 -0.102423 14.87 0.229244Z" fill="#1C1C1C"/>
<path d="M16.3352 1.56919C16.4413 1.46337 16.6133 1.46337 16.7195 1.56919L18.2582 3.10527C18.3644 3.21131 18.3644 3.38322 18.2582 3.48925L9.23581 12.4964C9.20182 12.5304 9.15869 12.5549 9.11223 12.5671L7.02955 13.1102C6.82869 13.1624 6.64575 12.9794 6.69789 12.7789L7.24184 10.6999C7.25405 10.6532 7.27851 10.6106 7.31267 10.5765L16.3352 1.56919Z" fill="#1C1C1C"/>
</svg>
