<svg width="32" height="33" viewBox="0 0 32 33" fill="none" xmlns="http://www.w3.org/2000/svg">
<path d="M29.1228 0.718994H2.8772C1.28817 0.718994 0 2.00716 0 3.5962V29.8418C0 31.4308 1.28817 32.719 2.8772 32.719H29.1228C30.7118 32.719 32 31.4308 32 29.8418V3.5962C32 2.00716 30.7118 0.718994 29.1228 0.718994Z" fill="url(#paint0_linear_362_751)"/>
<path d="M9.08793 15.2973C9.0842 14.0005 9.00956 12.7951 9.36035 11.5356C10.103 8.8618 12.2935 6.99032 15.083 6.76828L22.9216 6.79067L14.4169 15.2954H9.08793V15.2973Z" fill="white"/>
<path d="M20.832 16.1331L12.5848 24.3598C10.7861 22.9286 9.53218 20.8556 9.18326 18.5643C9.06011 17.7526 9.08623 16.9503 9.0881 16.1312H20.832V16.1331Z" fill="white"/>
<path d="M21.5019 26.3322C19.526 26.8584 17.5574 26.7726 15.6412 26.071C14.809 25.7669 14.0365 25.347 13.2696 24.9104L21.5019 16.6352V26.3322Z" fill="white"/>
<defs>
<linearGradient id="paint0_linear_362_751" x1="28.0891" y1="5.26617" x2="3.98927" y2="28.1009" gradientUnits="userSpaceOnUse">
<stop stop-color="#161616"/>
<stop offset="1" stop-color="#231F20"/>
</linearGradient>
</defs>
</svg>
