<svg width="24" height="20" viewBox="0 0 24 20" fill="none" xmlns="http://www.w3.org/2000/svg">
<path fill-rule="evenodd" clip-rule="evenodd" d="M5.96777 0.272045C9.98169 -0.0906815 14.0183 -0.0906818 18.0322 0.272045L19.9572 0.446003C21.7992 0.612455 23.2914 2.06957 23.5663 3.97024C24.1446 7.96761 24.1446 12.0324 23.5663 16.0298C23.5157 16.3794 23.424 16.7141 23.2964 17.0285C23.2118 17.2369 22.9508 17.2686 22.8044 17.1012L17.1686 10.6566C16.914 10.3654 16.5181 10.2578 16.1589 10.3823L12.933 11.5001L8.25323 6.02707C8.07831 5.8225 7.82998 5.70198 7.5668 5.69395C7.30363 5.6859 7.04891 5.79106 6.86274 5.98459L0.59897 12.4962C0.406191 12.6966 0.0774082 12.569 0.0620379 12.2861C-0.0886708 9.51152 0.035208 6.72487 0.433674 3.97024C0.708613 2.06957 2.2008 0.612455 4.04275 0.446003L5.96777 0.272045ZM14.5493 6.02478C14.5493 4.92706 15.4053 4.03717 16.4613 4.03717C17.5172 4.03717 18.3732 4.92706 18.3732 6.02478C18.3732 7.12251 17.5172 8.01239 16.4613 8.01239C15.4053 8.01239 14.5493 7.12251 14.5493 6.02478Z" fill="black"/>
<path d="M0.478887 15.4319C0.408331 15.5053 0.374814 15.6087 0.388869 15.7114C0.403397 15.8176 0.418332 15.9237 0.433674 16.0298C0.708613 17.9304 2.2008 19.3875 4.04275 19.554L5.96777 19.728C9.98168 20.0907 14.0183 20.0907 18.0322 19.728L19.9572 19.554C20.4985 19.5051 21.0096 19.3447 21.4684 19.0944C21.6423 18.9996 21.6716 18.7606 21.5395 18.6095L16.3124 12.6323C16.2275 12.5352 16.0956 12.4994 15.9758 12.5408L12.9396 13.593C12.5768 13.7187 12.1769 13.6075 11.9228 13.3104L7.72232 8.39791C7.6005 8.25545 7.38846 8.24898 7.25882 8.38375L0.478887 15.4319Z" fill="black"/>
</svg>
