<svg width="16" height="21" viewBox="0 0 16 21" fill="none" xmlns="http://www.w3.org/2000/svg">
<path fill-rule="evenodd" clip-rule="evenodd" d="M8.76929 15.641V12.8041H4.39709C2.70696 12.8041 1.27402 14.0291 1.035 15.6783C0.718309 17.8634 2.59626 19.7472 4.81834 19.4734L5.40127 19.4016C7.32538 19.1646 8.76929 17.5523 8.76929 15.641Z" fill="#222222"/>
<path d="M8.76929 6.62161V5.99151C8.76929 4.32394 8.76929 3.49015 9.26476 2.91364C9.76024 2.33713 10.5946 2.20006 12.2634 1.92591L14.7271 1.52118C14.8691 1.49785 14.94 1.48619 14.9784 1.52708C15.0167 1.56798 14.9992 1.6368 14.9643 1.77444L14.0283 5.46466C14.0127 5.52615 14.0049 5.5569 13.983 5.57751C13.9611 5.59812 13.9296 5.60433 13.8665 5.61676L8.76929 6.62161ZM8.76929 6.62161V12.8041M8.76929 12.8041V15.641C8.76929 17.5523 7.32538 19.1646 5.40127 19.4016L4.81834 19.4734C2.59626 19.7472 0.718309 17.8634 1.035 15.6783C1.27402 14.0291 2.70696 12.8041 4.39709 12.8041H8.76929Z" stroke="#222222" stroke-width="2"/>
</svg>
