<svg width="38" height="38" viewBox="0 0 38 38" fill="none" xmlns="http://www.w3.org/2000/svg">
<path d="M9.2333 4.42012C15.7322 3.85996 22.2678 3.85996 28.7667 4.42012L31.8978 4.68999C33.9822 4.86965 35.7673 6.1024 36.6923 7.86574C36.8107 8.09133 36.722 8.36445 36.5039 8.49829L23.5131 16.4722C20.7269 18.1824 17.2137 18.2183 14.3926 16.5654L1.31497 8.90303C1.10369 8.77924 1.00671 8.52441 1.10193 8.30013C1.94814 6.30698 3.85061 4.88407 6.10222 4.69L9.2333 4.42012Z" fill="black"/>
<path d="M1.09128 12.3537C0.767933 12.1642 0.355351 12.3681 0.317659 12.7386C-0.208396 17.91 -0.0810763 23.1304 0.699619 28.2781C1.11119 30.9919 3.34492 33.0723 6.10222 33.31L9.2333 33.5799C15.7322 34.14 22.2678 34.14 28.7667 33.5799L31.8978 33.31C34.6551 33.0723 36.8888 30.9919 37.3004 28.2781C38.1038 22.9804 38.2153 17.6057 37.6347 12.2866C37.594 11.9135 37.1744 11.7134 36.8525 11.9109L25.15 19.0941C21.3804 21.4079 16.6273 21.4564 12.8106 19.2201L1.09128 12.3537Z" fill="black"/>
</svg>
