<svg width="38" height="38" viewBox="0 0 38 38" fill="none" xmlns="http://www.w3.org/2000/svg">
<mask id="mask0_56_199" style="mask-type:luminance" maskUnits="userSpaceOnUse" x="1" y="8" width="13" height="22">
<path d="M1.19672 8.2334H13.6293V29.7667H1.19672V8.2334Z" fill="white"/>
</mask>
<g mask="url(#mask0_56_199)">
<mask id="mask1_56_199" style="mask-type:luminance" maskUnits="userSpaceOnUse" x="1" y="0" width="36" height="38">
<path d="M36.358 15.6893H19.3979V22.7209H29.1603C28.2502 27.1881 24.4446 29.7526 19.3979 29.7526C13.4412 29.7526 8.6427 24.9545 8.6427 18.9982C8.6427 13.042 13.4412 8.24394 19.3979 8.24394C21.9626 8.24394 24.2791 9.15396 26.0991 10.643L31.394 5.34861C28.1675 2.53592 24.0309 0.798706 19.3979 0.798706C9.30453 0.798706 1.19678 8.90577 1.19678 18.9982C1.19678 29.0908 9.30453 37.1979 19.3979 37.1979C28.4984 37.1979 36.7716 30.5798 36.7716 18.9982C36.7716 17.9229 36.6061 16.7646 36.358 15.6893Z" fill="white"/>
</mask>
<g mask="url(#mask1_56_199)">
<path d="M-0.457825 29.7526V8.2439L13.6066 18.9982L-0.457825 29.7526Z" fill="#FBBC05"/>
</g>
</g>
<mask id="mask2_56_199" style="mask-type:luminance" maskUnits="userSpaceOnUse" x="1" y="0" width="36" height="19">
<path d="M1.19672 0.785278H36.7715V18.9999H1.19672V0.785278Z" fill="white"/>
</mask>
<g mask="url(#mask2_56_199)">
<mask id="mask3_56_199" style="mask-type:luminance" maskUnits="userSpaceOnUse" x="1" y="0" width="36" height="38">
<path d="M36.358 15.6891H19.3979V22.7208H29.1603C28.2502 27.188 24.4446 29.7525 19.3979 29.7525C13.4412 29.7525 8.6427 24.9544 8.6427 18.9981C8.6427 13.0419 13.4412 8.24381 19.3979 8.24381C21.9626 8.24381 24.2791 9.15383 26.0991 10.6429L31.394 5.34849C28.1675 2.5358 24.0309 0.798584 19.3979 0.798584C9.30453 0.798584 1.19678 8.90565 1.19678 18.9981C1.19678 29.0907 9.30453 37.1977 19.3979 37.1977C28.4984 37.1977 36.7716 30.5797 36.7716 18.9981C36.7716 17.9227 36.6061 16.7645 36.358 15.6891Z" fill="white"/>
</mask>
<g mask="url(#mask3_56_199)">
<path d="M-0.457825 8.24386L13.6066 18.9982L19.3979 13.952L39.2536 10.7256V-0.855957H-0.457825V8.24386Z" fill="#EA4335"/>
</g>
</g>
<mask id="mask4_56_199" style="mask-type:luminance" maskUnits="userSpaceOnUse" x="1" y="0" width="36" height="38">
<path d="M1.19672 0.785278H36.7715V37.1977H1.19672V0.785278Z" fill="white"/>
</mask>
<g mask="url(#mask4_56_199)">
<mask id="mask5_56_199" style="mask-type:luminance" maskUnits="userSpaceOnUse" x="1" y="0" width="36" height="38">
<path d="M36.358 15.6891H19.3979V22.7208H29.1603C28.2502 27.188 24.4446 29.7525 19.3979 29.7525C13.4412 29.7525 8.6427 24.9544 8.6427 18.9981C8.6427 13.0419 13.4412 8.24381 19.3979 8.24381C21.9626 8.24381 24.2791 9.15383 26.0991 10.6429L31.394 5.34849C28.1675 2.5358 24.0309 0.798584 19.3979 0.798584C9.30453 0.798584 1.19678 8.90565 1.19678 18.9981C1.19678 29.0907 9.30453 37.1977 19.3979 37.1977C28.4984 37.1977 36.7716 30.5797 36.7716 18.9981C36.7716 17.9227 36.6061 16.7645 36.358 15.6891Z" fill="white"/>
</mask>
<g mask="url(#mask5_56_199)">
<path d="M-0.457825 29.7525L24.3618 10.7256L30.8976 11.5529L39.2536 -0.855957V38.8524H-0.457825V29.7525Z" fill="#34A853"/>
</g>
</g>
<mask id="mask6_56_199" style="mask-type:luminance" maskUnits="userSpaceOnUse" x="10" y="8" width="27" height="30">
<path d="M10.2853 8.2334H36.7715V37.1978H10.2853V8.2334Z" fill="white"/>
</mask>
<g mask="url(#mask6_56_199)">
<mask id="mask7_56_199" style="mask-type:luminance" maskUnits="userSpaceOnUse" x="1" y="0" width="36" height="38">
<path d="M36.3579 15.6893H19.3978V22.7209H29.1603C28.2501 27.1881 24.4445 29.7526 19.3978 29.7526C13.4411 29.7526 8.64264 24.9545 8.64264 18.9982C8.64264 13.042 13.4411 8.24394 19.3978 8.24394C21.9625 8.24394 24.279 9.15396 26.0991 10.643L31.3939 5.34861C28.1674 2.53592 24.0309 0.798706 19.3978 0.798706C9.30447 0.798706 1.19672 8.90577 1.19672 18.9982C1.19672 29.0908 9.30447 37.1979 19.3978 37.1979C28.4983 37.1979 36.7715 30.5798 36.7715 18.9982C36.7715 17.9229 36.6061 16.7646 36.3579 15.6893Z" fill="white"/>
</mask>
<g mask="url(#mask7_56_199)">
<path d="M39.2535 38.8524L13.6066 18.9982L10.2973 16.5165L39.2535 8.2439V38.8524Z" fill="#4285F4"/>
</g>
</g>
</svg>
