<svg width="16" height="16" viewBox="0 0 16 16" fill="none" xmlns="http://www.w3.org/2000/svg">
<g clip-path="url(#clip0_79_2343)">
<path fill-rule="evenodd" clip-rule="evenodd" d="M6.66452 8.0008L3.25623 9.99467L0.554588 8.75428L0 9.97451L1.84372 10.821L0.829572 11.4143L1.48963 12.5727L2.5036 11.9795L2.30527 14.0203L3.62548 14.1438L3.91612 11.1532L7.32601 9.15837V13.1686L4.91322 14.9201L5.69625 15.9992L7.32601 14.8161V16H8.65908V14.816L10.2889 15.9992L11.072 14.9201L8.65908 13.1685V9.16763L12.0766 11.1669L12.3673 14.1578L13.6875 14.0343L13.4891 11.9932L14.5033 12.5865L15.1634 11.4281L14.1493 10.8349L15.9927 9.98853L15.4381 8.7683L12.7368 10.0086L9.30475 8.0008L12.7262 5.99922L15.4454 7.24767L16 6.02745L14.1387 5.17289L15.1647 4.5727L14.5046 3.41428L13.4983 4.003L13.6947 1.98165L12.3745 1.85819L12.0858 4.82933L8.65908 6.83397V2.84503L11.0874 1.08218L10.3044 0.00310632L8.65908 1.19753V0H7.32601V1.17497L5.71174 0.00310632L4.92872 1.08218L7.32601 2.82247V6.84322L3.9266 4.85454L3.63405 1.84433L2.31384 1.96779L2.51408 4.02821L1.48829 3.42812L0.828235 4.58653L1.83455 5.17523L0.00856609 6.01358L0.563154 7.23381L3.24707 6.00156L6.66452 8.0008Z" fill="white"/>
</g>
<defs>
<clipPath id="clip0_79_2343">
<rect width="16" height="16" fill="white"/>
</clipPath>
</defs>
</svg>
