<svg width="16" height="16" viewBox="0 0 16 16" fill="none" xmlns="http://www.w3.org/2000/svg">
<path d="M3.31572 4.45342C3.1309 4.40294 2.97728 4.27009 2.89641 4.0908C2.81555 3.9115 2.8158 3.70429 2.89709 3.5252L4.3233 0.383191C4.42958 0.149045 4.65711 -0.000318881 4.90703 5.11212e-07C5.15694 0.000321079 5.38412 0.150268 5.48984 0.384684L6.119 1.77971C6.14149 1.77055 6.16472 1.76262 6.18862 1.75599C9.92199 0.720442 13.7594 3.01393 14.7598 6.87865C15.7602 10.7434 13.5446 14.7158 9.81122 15.7513C6.07785 16.7869 2.2404 14.4934 1.24004 10.6287C0.921931 9.39973 0.929088 8.15792 1.2077 7.00337C1.29391 6.64612 1.64357 6.42886 1.98868 6.51811C2.33379 6.60735 2.54367 6.96931 2.45745 7.32656C2.23049 8.26709 2.22423 9.27881 2.4843 10.2836C3.30053 13.4369 6.43163 15.3083 9.47783 14.4633C12.524 13.6184 14.3318 10.3771 13.5155 7.22377C12.7127 4.12198 9.66998 2.26062 6.67149 3.00475L7.30629 4.41227C7.41201 4.64669 7.37719 4.92326 7.21697 5.12179C7.05674 5.32033 6.80003 5.405 6.55838 5.339L3.31572 4.45342Z" fill="white"/>
</svg>
