<svg width="20" height="20" viewBox="0 0 20 20" fill="none" xmlns="http://www.w3.org/2000/svg">
<path d="M4.98113 6.45342C4.7831 6.40294 4.61851 6.27009 4.53187 6.0908C4.44523 5.9115 4.4455 5.70429 4.5326 5.5252L6.06068 2.38319C6.17455 2.14905 6.41833 1.99968 6.6861 2C6.95386 2.00032 7.19727 2.15027 7.31054 2.38468L7.98464 3.77971C8.00874 3.77055 8.03362 3.76262 8.05923 3.75599C12.0593 2.72044 16.1708 5.01393 17.2426 8.87865C18.3145 12.7434 15.9406 16.7158 11.9406 17.7513C7.94055 18.7869 3.829 16.4934 2.75719 12.6287C2.41635 11.3997 2.42402 10.1579 2.72254 9.00337C2.81491 8.64612 3.18954 8.42886 3.5593 8.51811C3.92906 8.60735 4.15393 8.96931 4.06156 9.32656C3.81838 10.2671 3.81168 11.2788 4.09033 12.2836C4.96485 15.4369 8.31961 17.3083 11.5834 16.4633C14.8472 15.6184 16.784 12.3771 15.9095 9.22377C15.0493 6.12198 11.7893 4.26062 8.5766 5.00475L9.25674 6.41227C9.37001 6.64669 9.33271 6.92326 9.16104 7.12179C8.98936 7.32033 8.71431 7.405 8.45541 7.339L4.98113 6.45342Z" fill="url(#paint0_linear_148_2313)"/>
<defs>
<linearGradient id="paint0_linear_148_2313" x1="10" y1="2" x2="10" y2="18" gradientUnits="userSpaceOnUse">
<stop stop-color="#9747FF"/>
<stop offset="1" stop-color="#5200D5"/>
</linearGradient>
</defs>
</svg>
