<svg width="8" height="8" viewBox="0 0 8 8" fill="none" xmlns="http://www.w3.org/2000/svg">
<path d="M6.93391 0.369188C7.17591 0.458344 7.33667 0.6889 7.33667 0.946796L7.33667 7.05362C7.33667 7.31151 7.17591 7.54207 6.93391 7.63123C6.47606 7.79991 5.97308 7.79991 5.51523 7.63123C5.27323 7.54207 5.11247 7.31151 5.11247 7.05362L5.11247 0.946796C5.11247 0.6889 5.27323 0.458344 5.51523 0.369188C5.97308 0.200505 6.47606 0.200505 6.93391 0.369188Z" fill="black"/>
<path d="M2.48551 0.369188C2.7275 0.458344 2.88827 0.6889 2.88827 0.946796L2.88827 7.05362C2.88827 7.31151 2.7275 7.54207 2.48551 7.63123C2.02765 7.79991 1.52467 7.79991 1.06682 7.63123C0.824826 7.54207 0.664062 7.31151 0.664062 7.05362L0.664063 0.946796C0.664063 0.6889 0.824826 0.458344 1.06682 0.369188C1.52467 0.200505 2.02765 0.200505 2.48551 0.369188Z" fill="black"/>
</svg>
