<svg width="20" height="20" viewBox="0 0 20 20" fill="none" xmlns="http://www.w3.org/2000/svg">
<path fill-rule="evenodd" clip-rule="evenodd" d="M8.66426 10.0008L5.2551 11.9948L2.55278 10.7544L1.99805 11.9746L3.84223 12.8212L2.82783 13.4145L3.48805 14.573L4.50228 13.9798L4.3039 16.0206L5.62445 16.1441L5.91516 13.1534L9.32591 11.1585V15.1689L6.91251 16.9205L7.69573 17.9996L9.32591 16.8164V18.0004H10.6593V16.8164L12.2896 17.9996L13.0728 16.9205L10.6593 15.1688V11.1677L14.0777 13.1671L14.3684 16.1581L15.689 16.0347L15.4906 13.9935L16.505 14.5868L17.1652 13.4283L16.1509 12.8351L17.9948 11.9887L17.4401 10.7684L14.7381 12.0087L11.3052 10.0008L14.7275 7.99916L17.4474 9.24768L18.0021 8.02739L16.1404 7.17279L17.1666 6.57256L16.5063 5.41409L15.4997 6.00284L15.6962 3.98139L14.3757 3.85792L14.0869 6.82921L10.6593 8.83395V4.84481L13.0883 3.08187L12.3051 2.00274L10.6593 3.19722V1.99963H9.32591V3.17466L7.71123 2.00274L6.92801 3.08187L9.32591 4.82225V8.8432L5.92564 6.85442L5.63301 3.84406L4.31247 3.96752L4.51276 6.02805L3.48672 5.42792L2.82649 6.5864L3.83306 7.17513L2.00662 8.01352L2.56134 9.23381L5.24593 8.0015L8.66426 10.0008Z" fill="url(#paint0_linear_148_2315)"/>
<defs>
<linearGradient id="paint0_linear_148_2315" x1="10.0001" y1="1.99963" x2="10.0001" y2="18.0004" gradientUnits="userSpaceOnUse">
<stop stop-color="#007CD5"/>
<stop offset="1" stop-color="#0095FF"/>
</linearGradient>
</defs>
</svg>
