<svg width="20" height="20" viewBox="0 0 20 20" fill="none" xmlns="http://www.w3.org/2000/svg">
<path fill-rule="evenodd" clip-rule="evenodd" d="M12.0817 13.057C9.64459 15.009 6.07719 14.8553 3.81801 12.5962C1.394 10.1721 1.394 6.24203 3.81801 3.81801C6.24203 1.394 10.1721 1.394 12.5962 3.81801C14.8553 6.07719 15.009 9.64459 13.057 12.0817L17.798 16.8226C18.0673 17.092 18.0673 17.5287 17.798 17.798C17.5287 18.0673 17.092 18.0673 16.8226 17.798L12.0817 13.057ZM4.79336 11.6208C2.90802 9.73546 2.90802 6.67871 4.79336 4.79336C6.67871 2.90802 9.73546 2.90802 11.6208 4.79336C13.5048 6.67733 13.5061 9.73097 11.625 11.6167C11.6236 11.618 11.6222 11.6194 11.6208 11.6208C11.6194 11.6222 11.618 11.6236 11.6167 11.625C9.73098 13.5062 6.67733 13.5048 4.79336 11.6208Z" fill="url(#paint0_linear_148_2314)"/>
<defs>
<linearGradient id="paint0_linear_148_2314" x1="10" y1="2" x2="10" y2="18" gradientUnits="userSpaceOnUse">
<stop stop-color="#00D616"/>
<stop offset="1" stop-color="#00B524"/>
</linearGradient>
</defs>
</svg>
