<svg width="28" height="28" viewBox="0 0 28 28" fill="none" xmlns="http://www.w3.org/2000/svg">
<path d="M8.80049 5.5022C9.17249 5.52982 9.47771 5.81248 9.53941 6.18651L11.4814 17.9576L13.8965 9.38636C13.9959 9.0334 14.3134 8.7902 14.6745 8.79033C15.0355 8.79047 15.3528 9.03391 15.452 9.38693L17.0897 15.2149L18.0293 13.5842C18.1744 13.3322 18.4401 13.1774 18.7273 13.1774H20.7302C21.0738 12.065 22.0959 11.2581 23.3034 11.2581C24.7927 11.2581 26 12.4857 26 14C26 15.5143 24.7927 16.7419 23.3034 16.7419C22.0959 16.7419 21.0738 15.935 20.7302 14.8226H19.1909L17.5295 17.7061C17.3658 17.9902 17.0512 18.1477 16.7299 18.1064C16.4087 18.0651 16.1426 17.8329 16.0536 17.5163L14.6731 12.6033L12.0525 21.904C11.9484 22.2734 11.6065 22.5203 11.2292 22.4987C10.8518 22.477 10.5395 22.1925 10.4769 21.8135L8.4928 9.78683L7.07637 14.2525C6.9686 14.5923 6.65756 14.8226 6.30644 14.8226H2.80899C2.3622 14.8226 2 14.4543 2 14C2 13.5457 2.3622 13.1774 2.80899 13.1774H5.71732L7.97164 6.07011C8.08612 5.70916 8.42848 5.47458 8.80049 5.5022Z" fill="black"/>
</svg>
