<svg width="28" height="28" viewBox="0 0 28 28" fill="none" xmlns="http://www.w3.org/2000/svg">
<path d="M11.9795 11.4623C13.3108 11.3135 14.6892 11.3135 16.0205 11.4623C16.2864 11.4921 16.4943 11.703 16.5237 11.9544C16.6826 13.3135 16.6826 14.6865 16.5237 16.0456C16.4943 16.297 16.2864 16.5079 16.0205 16.5377C14.6892 16.6865 13.3108 16.6865 11.9795 16.5377C11.7136 16.5079 11.5057 16.297 11.4763 16.0456C11.3173 14.6865 11.3173 13.3135 11.4763 11.9544C11.5057 11.703 11.7136 11.4921 11.9795 11.4623Z" fill="black"/>
<path fill-rule="evenodd" clip-rule="evenodd" d="M17.6923 2C18.2021 2 18.6154 2.41328 18.6154 2.92308V6.52493C20.0472 6.80885 21.187 7.94002 21.4562 9.38462H25.0769C25.5867 9.38462 26 9.79789 26 10.3077C26 10.8175 25.5867 11.2308 25.0769 11.2308H21.6455C21.6908 11.8455 21.721 12.4611 21.7361 13.0769H23.8462C24.356 13.0769 24.7692 13.4902 24.7692 14C24.7692 14.5098 24.356 14.9231 23.8462 14.9231H21.7361C21.721 15.5389 21.6908 16.1545 21.6455 16.7692H25.0769C25.5867 16.7692 26 17.1825 26 17.6923C26 18.2021 25.5867 18.6154 25.0769 18.6154H21.4562C21.187 20.06 20.0472 21.1912 18.6154 21.4751V25.0769C18.6154 25.5867 18.2021 26 17.6923 26C17.1825 26 16.7692 25.5867 16.7692 25.0769V21.6625C16.156 21.7059 15.54 21.7348 14.9231 21.7493V23.8462C14.9231 24.356 14.5098 24.7692 14 24.7692C13.4902 24.7692 13.0769 24.356 13.0769 23.8462V21.7493C12.46 21.7348 11.844 21.7059 11.2308 21.6625V25.0769C11.2308 25.5867 10.8175 26 10.3077 26C9.79789 26 9.38462 25.5867 9.38462 25.0769V21.4751C7.95278 21.1912 6.81297 20.06 6.54383 18.6154H2.92308C2.41328 18.6154 2 18.2021 2 17.6923C2 17.1825 2.41328 16.7692 2.92308 16.7692H6.35455C6.30925 16.1545 6.27905 15.5389 6.26396 14.9231H4.15385C3.64404 14.9231 3.23077 14.5098 3.23077 14C3.23077 13.4902 3.64405 13.0769 4.15385 13.0769H6.26396C6.27905 12.4611 6.30925 11.8455 6.35455 11.2308H2.92308C2.41328 11.2308 2 10.8175 2 10.3077C2 9.79789 2.41328 9.38462 2.92308 9.38462H6.54383C6.81297 7.94002 7.95278 6.80885 9.38462 6.52493V2.92308C9.38462 2.41328 9.79789 2 10.3077 2C10.8175 2 11.2308 2.41328 11.2308 2.92308V6.33753C11.844 6.29412 12.46 6.26519 13.0769 6.25075V4.15385C13.0769 3.64404 13.4902 3.23077 14 3.23077C14.5098 3.23077 14.9231 3.64404 14.9231 4.15385V6.25075C15.54 6.26519 16.156 6.29412 16.7692 6.33753V2.92308C16.7692 2.41328 17.1825 2 17.6923 2ZM16.2256 9.62761C14.758 9.46359 13.242 9.46359 11.7744 9.62761C10.6692 9.75114 9.77352 10.621 9.64265 11.74C9.46702 13.2415 9.46702 14.7585 9.64265 16.26C9.77352 17.379 10.6692 18.2489 11.7744 18.3724C13.242 18.5364 14.758 18.5364 16.2256 18.3724C17.3308 18.2489 18.2265 17.379 18.3573 16.26C18.533 14.7585 18.533 13.2415 18.3573 11.74C18.2265 10.621 17.3308 9.75114 16.2256 9.62761Z" fill="black"/>
</svg>
