<svg width="12" height="12" viewBox="0 0 12 12" fill="none" xmlns="http://www.w3.org/2000/svg">
<path d="M11.2181 2.14316C11.594 1.76726 11.594 1.15782 11.2181 0.781922C10.8422 0.406026 10.2327 0.406026 9.85683 0.781922L6 4.63876L2.14317 0.781922C1.76728 0.406027 1.15783 0.406027 0.781933 0.781922C0.406038 1.15782 0.406038 1.76726 0.781933 2.14316L4.63876 5.99999L0.781921 9.85684C0.406026 10.2327 0.406026 10.8422 0.781921 11.2181C1.15782 11.594 1.76726 11.594 2.14316 11.2181L6 7.36123L9.85684 11.2181C10.2327 11.594 10.8422 11.594 11.2181 11.2181C11.594 10.8422 11.594 10.2327 11.2181 9.85684L7.36124 5.99999L11.2181 2.14316Z" fill="black"/>
</svg>
