<svg width="20" height="16" viewBox="0 0 20 16" fill="none" xmlns="http://www.w3.org/2000/svg">
<path fill-rule="evenodd" clip-rule="evenodd" d="M20 8C20 7.45972 19.5667 7.02174 19.0323 7.02174H0.967742C0.433272 7.02174 0 7.45972 0 8C0 8.54028 0.433272 8.97826 0.967742 8.97826H19.0323C19.5667 8.97826 20 8.54028 20 8Z" fill="black"/>
<path fill-rule="evenodd" clip-rule="evenodd" d="M20 1.47826C20 0.937982 19.5667 0.5 19.0323 0.5H0.967742C0.433272 0.5 0 0.937982 0 1.47826C0 2.01854 0.433272 2.45652 0.967742 2.45652H19.0323C19.5667 2.45652 20 2.01854 20 1.47826Z" fill="black"/>
<path fill-rule="evenodd" clip-rule="evenodd" d="M20 14.5217C20 13.9815 19.5667 13.5435 19.0323 13.5435H0.967742C0.433272 13.5435 0 13.9815 0 14.5217C0 15.062 0.433272 15.5 0.967742 15.5H19.0323C19.5667 15.5 20 15.062 20 14.5217Z" fill="black"/>
</svg>
