<svg width="28" height="28" viewBox="0 0 28 28" fill="none" xmlns="http://www.w3.org/2000/svg">
<path d="M4.50519 9.40505C3.06229 9.78733 2 11.0876 2 12.6329V16.2785C2 18.1241 3.51534 19.6203 5.38462 19.6203H8.46154C8.97134 19.6203 9.38462 19.2122 9.38462 18.7089V10.2025C9.38462 9.69918 8.97134 9.29114 8.46154 9.29114H6.38748C6.91568 6.28965 10.0106 3.82278 14 3.82278C17.9894 3.82278 21.0843 6.28965 21.6125 9.29114H19.5385C19.0287 9.29114 18.6154 9.69918 18.6154 10.2025V18.7089C18.6154 19.2122 19.0287 19.6203 19.5385 19.6203H21.5853C21.1685 21.362 19.5837 22.6582 17.6923 22.6582H16.2826C15.9174 21.7675 15.033 21.1392 14 21.1392C12.6405 21.1392 11.5385 22.2274 11.5385 23.5696C11.5385 24.9119 12.6405 26 14 26C15.033 26 15.9174 25.3717 16.2826 24.481H17.6923C20.6459 24.481 23.0879 22.3184 23.4827 19.5095C24.9317 19.1314 26 17.8281 26 16.2785V12.6329C26 11.0876 24.9377 9.78733 23.4948 9.40506C23.0253 5.14684 18.8323 2 14 2C9.16775 2 4.97468 5.14684 4.50519 9.40505Z" fill="#050505"/>
</svg>
