<svg width="21" height="20" viewBox="0 0 21 20" fill="none" xmlns="http://www.w3.org/2000/svg">
<path d="M10.0385 18.5806C10.0385 18.0729 10.4517 17.6613 10.9615 17.6613H18.3462C18.5161 17.6613 18.6538 17.5241 18.6538 17.3548L18.6538 2.64516C18.6538 2.47591 18.5161 2.33871 18.3462 2.33871L10.9615 2.33871C10.4517 2.33871 10.0385 1.9271 10.0385 1.41936C10.0385 0.911611 10.4517 0.5 10.9615 0.5H18.3462C19.5357 0.5 20.5 1.46042 20.5 2.64516V17.3548C20.5 18.5396 19.5357 19.5 18.3462 19.5H10.9615C10.4517 19.5 10.0385 19.0884 10.0385 18.5806Z" fill="black"/>
<path d="M15.4066 11.367C15.4066 12.044 14.8556 12.5928 14.1758 12.5928H8.19923C8.171 13.0285 8.13567 13.4639 8.09324 13.8987L8.05673 14.2728C7.99737 14.8811 7.34881 15.2454 6.79543 14.9813C4.54569 13.9074 2.50904 12.438 0.783424 10.6436L0.746553 10.6052C0.417816 10.2634 0.417816 9.72427 0.746553 9.38242L0.783425 9.34408C2.50904 7.54966 4.54569 6.08019 6.79543 5.00637C7.34881 4.74223 7.99737 5.10653 8.05673 5.71483L8.09324 6.08894C8.13567 6.52377 8.171 6.95911 8.19923 7.3948L14.1758 7.3948C14.8556 7.3948 15.4066 7.94361 15.4066 8.62061V11.367Z" fill="black"/>
</svg>
