<svg width="28" height="28" viewBox="0 0 28 28" fill="none" xmlns="http://www.w3.org/2000/svg">
<path d="M9.2002 3.7998C9.30516 3.7998 9.40887 3.82137 9.50586 3.8623C9.60293 3.90331 9.69133 3.96329 9.76562 4.03906C9.83989 4.11483 9.89927 4.20473 9.93945 4.30371C9.97958 4.40264 10 4.50914 10 4.61621V23.3838C10 23.6002 9.91565 23.8079 9.76562 23.9609C9.61563 24.1138 9.41226 24.2002 9.2002 24.2002C8.98814 24.2002 8.78477 24.1138 8.63477 23.9609C8.48474 23.8079 8.40039 23.6002 8.40039 23.3838V4.61621C8.40037 4.50912 8.4208 4.40266 8.46094 4.30371C8.50114 4.2047 8.56048 4.11484 8.63477 4.03906C8.70893 3.96342 8.79669 3.9033 8.89355 3.8623C8.99062 3.8213 9.09513 3.79979 9.2002 3.7998ZM6 7.47949C6.10495 7.4795 6.20869 7.50124 6.30566 7.54199C6.40273 7.5828 6.49114 7.64235 6.56543 7.71777C6.63971 7.79319 6.69906 7.88291 6.73926 7.98145C6.77936 8.07989 6.79982 8.18546 6.7998 8.29199V19.708C6.79971 19.9233 6.71537 20.13 6.56543 20.2822C6.41547 20.4344 6.21202 20.5195 6 20.5195C5.78801 20.5195 5.58456 20.4343 5.43457 20.2822C5.28463 20.13 5.20029 19.9233 5.2002 19.708V8.29199C5.20018 8.1854 5.2206 8.07993 5.26074 7.98145C5.30089 7.88303 5.35944 7.79313 5.43359 7.71777C5.50779 7.64244 5.59643 7.5828 5.69336 7.54199C5.79043 7.50118 5.89494 7.47948 6 7.47949ZM12.3994 7.47949C12.5045 7.47948 12.609 7.50118 12.7061 7.54199C12.8031 7.5828 12.8916 7.6424 12.9658 7.71777C13.04 7.79315 13.0985 7.88299 13.1387 7.98145C13.1788 8.07994 13.2002 8.18539 13.2002 8.29199V19.708C13.2001 19.9233 13.1157 20.13 12.9658 20.2822C12.8158 20.4345 12.6116 20.5195 12.3994 20.5195C12.1874 20.5194 11.9839 20.4344 11.834 20.2822C11.6841 20.13 11.5997 19.9233 11.5996 19.708V8.29199C11.5996 8.18539 11.621 8.07995 11.6611 7.98145C11.7013 7.88298 11.7598 7.79316 11.834 7.71777C11.9082 7.64239 11.9967 7.5828 12.0938 7.54199C12.1907 7.50124 12.2945 7.47954 12.3994 7.47949ZM18.7998 7.47949C18.9049 7.47948 19.0094 7.50118 19.1064 7.54199C19.2034 7.5828 19.292 7.64246 19.3662 7.71777C19.4403 7.79312 19.4989 7.88305 19.5391 7.98145C19.5792 8.07991 19.5996 8.18543 19.5996 8.29199V19.708C19.5995 19.9233 19.5152 20.13 19.3652 20.2822C19.2152 20.4343 19.0118 20.5195 18.7998 20.5195C18.5878 20.5195 18.3843 20.4344 18.2344 20.2822C18.0844 20.13 18.0001 19.9233 18 19.708V8.29199C18 8.18548 18.0205 8.07987 18.0605 7.98145C18.1007 7.88292 18.1601 7.79319 18.2344 7.71777C18.3087 7.64235 18.3971 7.5828 18.4941 7.54199C18.5911 7.50124 18.6948 7.4795 18.7998 7.47949ZM2.7998 10.5996C2.90487 10.5996 3.00938 10.6204 3.10645 10.6611C3.20331 10.7018 3.29105 10.7618 3.36523 10.8369C3.43952 10.9122 3.49886 11.0022 3.53906 11.1006C3.57914 11.1988 3.5996 11.3039 3.59961 11.4102V16.5889C3.59961 16.6953 3.57927 16.8011 3.53906 16.8994C3.49886 16.9977 3.43951 17.0869 3.36523 17.1621C3.29105 17.2373 3.20334 17.2972 3.10645 17.3379C3.00938 17.3786 2.90486 17.3994 2.7998 17.3994C2.69488 17.3994 2.59109 17.3786 2.49414 17.3379C2.39708 17.2972 2.30866 17.2374 2.23438 17.1621C2.16013 17.0869 2.10073 16.9977 2.06055 16.8994C2.02037 16.8011 2 16.6953 2 16.5889V11.4102C2.00001 11.3039 2.02051 11.1987 2.06055 11.1006C2.10074 11.0022 2.16008 10.9122 2.23438 10.8369C2.30863 10.7617 2.39714 10.7018 2.49414 10.6611C2.59104 10.6205 2.69494 10.5996 2.7998 10.5996ZM15.6006 10.5996C15.7054 10.5996 15.8094 10.6205 15.9062 10.6611C16.0033 10.7018 16.0917 10.7617 16.166 10.8369C16.2403 10.9122 16.2996 11.0022 16.3398 11.1006C16.3799 11.1987 16.4004 11.304 16.4004 11.4102V16.5889C16.4004 16.8038 16.3159 17.0101 16.166 17.1621C16.0161 17.314 15.8126 17.3993 15.6006 17.3994C15.3884 17.3994 15.1842 17.3141 15.0342 17.1621C14.8843 17.0101 14.7998 16.8037 14.7998 16.5889V11.4102C14.7998 11.3039 14.8212 11.1988 14.8613 11.1006C14.9015 11.0022 14.9599 10.9122 15.0342 10.8369C15.1085 10.7616 15.1969 10.7019 15.2939 10.6611C15.391 10.6204 15.4955 10.5996 15.6006 10.5996ZM22 10.5996C22.1049 10.5996 22.2088 10.6205 22.3057 10.6611C22.4027 10.7018 22.4912 10.7617 22.5654 10.8369C22.6397 10.9122 22.6991 11.0022 22.7393 11.1006C22.7793 11.1987 22.7998 11.304 22.7998 11.4102V16.5889C22.7998 16.8038 22.7154 17.0101 22.5654 17.1621C22.4155 17.3141 22.2121 17.3994 22 17.3994C21.7879 17.3994 21.5846 17.3141 21.4346 17.1621C21.2845 17.0101 21.2002 16.8038 21.2002 16.5889V11.4102C21.2002 11.3039 21.2207 11.1988 21.2607 11.1006C21.3009 11.0023 21.3593 10.9122 21.4336 10.8369C21.5079 10.7617 21.5963 10.7019 21.6934 10.6611C21.7904 10.6204 21.8949 10.5996 22 10.5996ZM25.2002 13.1602C25.642 13.1602 26 13.5182 26 13.96C25.9999 14.4017 25.6419 14.7597 25.2002 14.7598C24.7584 14.7598 24.4005 14.4017 24.4004 13.96C24.4004 13.5181 24.7584 13.1602 25.2002 13.1602Z" fill="#1C1C1C"/>
</svg>
