<svg width="28" height="28" viewBox="0 0 28 28" fill="none" xmlns="http://www.w3.org/2000/svg">
<path fill-rule="evenodd" clip-rule="evenodd" d="M11.9969 14.0012L6.88338 16.992L2.8301 15.1314L1.99805 16.9618L4.76418 18.2315L3.24266 19.1214L4.23294 20.859L5.75421 19.9693L5.45665 23.0305L7.43737 23.2156L7.87342 18.7298L12.9893 15.7376V21.7528L9.36937 24.3801L10.5441 25.9988L12.9893 24.2241V26H14.9893V24.224L17.4346 25.9988L18.6093 24.3801L14.9893 21.7527V15.7514L20.1166 18.7503L20.5527 23.2367L22.5334 23.0515L22.2358 19.9898L23.7574 20.8798L24.7477 19.1422L23.2263 18.2523L25.992 16.9828L25.16 15.1525L21.1071 17.0128L15.958 14.0012L21.0912 10.9988L25.1709 12.8715L26.0029 11.0412L23.2104 9.75934L24.7497 8.85905L23.7594 7.12142L22.2496 8.0045L22.5443 4.97248L20.5636 4.78729L20.1304 9.244L14.9893 12.251V6.26755L18.6326 3.62327L17.4578 2.00466L14.9893 3.79629V2H12.9893V3.76246L10.5674 2.00466L9.39262 3.62327L12.9893 6.23371V12.2648L7.88913 9.28181L7.45022 4.7665L5.4695 4.95168L5.76993 8.04231L4.23094 7.14217L3.24065 8.8798L4.75043 9.76285L2.0109 11.0204L2.84295 12.8507L6.86963 11.0023L11.9969 14.0012Z" fill="#1C1C1C"/>
</svg>
