<svg width="28" height="28" viewBox="0 0 28 28" fill="none" xmlns="http://www.w3.org/2000/svg">
<path fill-rule="evenodd" clip-rule="evenodd" d="M17.1225 18.5856C13.4669 21.5135 8.11579 21.283 4.72702 17.8942C1.09099 14.2582 1.09099 8.36305 4.72702 4.72702C8.36304 1.09099 14.2582 1.09099 17.8942 4.72702C21.283 8.11579 21.5134 13.4669 18.5856 17.1225L25.697 24.234C26.101 24.638 26.101 25.293 25.697 25.697C25.293 26.101 24.638 26.101 24.234 25.697L17.1225 18.5856ZM6.19004 16.4312C3.36202 13.6032 3.36202 9.01807 6.19004 6.19004C9.01806 3.36202 13.6032 3.36202 16.4312 6.19004C19.2571 9.01599 19.2592 13.5965 16.4374 16.425C16.4353 16.427 16.4333 16.4291 16.4312 16.4312C16.4291 16.4333 16.427 16.4353 16.425 16.4374C13.5965 19.2592 9.01599 19.2572 6.19004 16.4312Z" fill="#1C1C1C"/>
</svg>
