<svg width="28" height="28" viewBox="0 0 28 28" fill="none" xmlns="http://www.w3.org/2000/svg">
<path d="M6.63899 8.68013C6.34855 8.60442 6.10715 8.40514 5.98008 8.13619C5.85301 7.86725 5.8534 7.55643 5.98114 7.28779L8.22232 2.57479C8.38934 2.22357 8.74689 1.99952 9.13961 2C9.53233 2.00048 9.88932 2.2254 10.0555 2.57703L11.0441 4.66956C11.0795 4.65583 11.116 4.64393 11.1535 4.63398C17.0203 3.08066 23.0506 6.5209 24.6225 12.318C26.1945 18.115 22.7129 24.0737 16.8462 25.627C10.9795 27.1803 4.94919 23.7401 3.37721 17.943C2.87732 16.0996 2.88857 14.2369 3.32639 12.5051C3.46186 11.9692 4.01132 11.6433 4.55363 11.7772C5.09595 11.911 5.42576 12.454 5.29029 12.9898C4.93362 14.4006 4.92379 15.9182 5.33248 17.4253C6.61512 22.1554 11.5354 24.9624 16.3223 23.695C21.1092 22.4276 23.9499 17.5657 22.6673 12.8357C21.4056 8.18297 16.6243 5.39093 11.9123 6.50713L12.9099 8.61841C13.076 8.97004 13.0213 9.38488 12.7695 9.68269C12.5177 9.9805 12.1143 10.1075 11.7346 10.0085L6.63899 8.68013Z" fill="#1C1C1C"/>
</svg>
