<svg width="30" height="28" viewBox="0 0 30 28" fill="none" xmlns="http://www.w3.org/2000/svg">
<path d="M9.35352 2C9.47709 1.99998 9.59969 2.02503 9.71387 2.07324C9.82806 2.12148 9.93213 2.1921 10.0195 2.28125C10.1069 2.37037 10.1764 2.47635 10.2236 2.59277C10.2709 2.70918 10.2949 2.83398 10.2949 2.95996V25.04C10.2948 25.2945 10.1959 25.5388 10.0195 25.7188C9.84304 25.8987 9.60308 26 9.35352 26C9.10414 25.9999 8.86488 25.8985 8.68848 25.7188C8.51208 25.5388 8.41321 25.2945 8.41309 25.04V2.95996C8.41307 2.83394 8.43712 2.70921 8.48438 2.59277C8.53167 2.47629 8.60108 2.3704 8.68848 2.28125C8.77587 2.19211 8.87995 2.12147 8.99414 2.07324C9.10814 2.02514 9.23015 2.00003 9.35352 2ZM5.58887 6.3291C5.71247 6.32908 5.83502 6.35433 5.94922 6.40234C6.06335 6.45035 6.16753 6.52069 6.25488 6.60938C6.34214 6.69803 6.41174 6.80316 6.45898 6.91895C6.50628 7.03488 6.53029 7.15968 6.53027 7.28516V20.7148C6.53026 20.9682 6.4313 21.2115 6.25488 21.3906C6.07838 21.5698 5.83848 21.6699 5.58887 21.6699C5.33942 21.6699 5.10029 21.5696 4.92383 21.3906C4.74734 21.2115 4.64747 20.9682 4.64746 20.7148V7.28516C4.64744 7.15968 4.67244 7.03488 4.71973 6.91895C4.76701 6.80315 4.83652 6.69801 4.92383 6.60938C5.01113 6.52078 5.11449 6.45033 5.22852 6.40234C5.3427 6.35434 5.46528 6.32909 5.58887 6.3291ZM13.1172 6.3291C13.2407 6.32908 13.3634 6.35436 13.4775 6.40234C13.5917 6.45035 13.6958 6.52065 13.7832 6.60938C13.8705 6.69805 13.94 6.80311 13.9873 6.91895C14.0346 7.03488 14.0586 7.15968 14.0586 7.28516V20.7148C14.0585 20.9682 13.9597 21.2115 13.7832 21.3906C13.6067 21.5697 13.3667 21.6699 13.1172 21.6699C12.8678 21.6698 12.6285 21.5696 12.4521 21.3906C12.2757 21.2115 12.1768 20.9682 12.1768 20.7148V7.28516C12.1767 7.15968 12.2008 7.03488 12.248 6.91895C12.2953 6.8031 12.3648 6.69805 12.4521 6.60938C12.5395 6.52065 12.6436 6.45035 12.7578 6.40234C12.8718 6.35444 12.9938 6.32914 13.1172 6.3291ZM20.6475 6.3291C20.7711 6.32908 20.8936 6.35433 21.0078 6.40234C21.1219 6.45035 21.2261 6.52071 21.3135 6.60938C21.4007 6.69803 21.4704 6.80317 21.5176 6.91895C21.5648 7.03486 21.5889 7.1597 21.5889 7.28516V20.7148C21.5888 20.9682 21.4899 21.2115 21.3135 21.3906C21.137 21.5698 20.8971 21.6699 20.6475 21.6699C20.398 21.6699 20.1589 21.5696 19.9824 21.3906C19.806 21.2115 19.7061 20.9682 19.7061 20.7148V7.28516C19.706 7.15968 19.731 7.03488 19.7783 6.91895C19.8256 6.8031 19.8951 6.69805 19.9824 6.60938C20.0697 6.52076 20.1731 6.45034 20.2871 6.40234C20.4013 6.35434 20.5239 6.32909 20.6475 6.3291ZM1.82422 10C1.94774 10 2.07044 10.0244 2.18457 10.0723C2.29864 10.1202 2.40194 10.1908 2.48926 10.2793C2.57666 10.3679 2.64607 10.4732 2.69336 10.5889C2.74054 10.7044 2.76561 10.8281 2.76562 10.9531V17.0459C2.76562 17.1711 2.74066 17.2954 2.69336 17.4111C2.64606 17.5267 2.5766 17.6322 2.48926 17.7207C2.40204 17.809 2.29845 17.8789 2.18457 17.9268C2.07045 17.9747 1.94774 18 1.82422 18C1.70062 18 1.57806 17.9747 1.46387 17.9268C1.34973 17.8788 1.24557 17.8092 1.1582 17.7207C1.07082 17.6322 1.0014 17.5268 0.954102 17.4111C0.906803 17.2954 0.882812 17.1711 0.882812 17.0459V10.9531C0.882825 10.8282 0.906974 10.7044 0.954102 10.5889C1.00135 10.4733 1.07092 10.3678 1.1582 10.2793C1.2456 10.1907 1.34967 10.1202 1.46387 10.0723C1.57804 10.0244 1.70064 9.99998 1.82422 10ZM16.8828 10C17.0063 10 17.129 10.0244 17.2432 10.0723C17.3572 10.1202 17.4605 10.1908 17.5479 10.2793C17.6353 10.3679 17.7047 10.4732 17.752 10.5889C17.7991 10.7044 17.8242 10.8281 17.8242 10.9531V17.0459C17.8242 17.2988 17.7244 17.5419 17.5479 17.7207C17.3714 17.8993 17.1322 17.9999 16.8828 18C16.6332 18 16.3933 17.8995 16.2168 17.7207C16.0403 17.5419 15.9414 17.2988 15.9414 17.0459V10.9531C15.9414 10.8282 15.9656 10.7043 16.0127 10.5889C16.06 10.4732 16.1295 10.3678 16.2168 10.2793C16.3042 10.1907 16.4083 10.1202 16.5225 10.0723C16.6366 10.0244 16.7593 9.99998 16.8828 10ZM24.4121 10C24.5356 9.99998 24.6583 10.0244 24.7725 10.0723C24.8867 10.1202 24.9907 10.1907 25.0781 10.2793C25.1655 10.3678 25.235 10.4732 25.2822 10.5889C25.3294 10.7044 25.3535 10.8281 25.3535 10.9531V17.0459C25.3535 17.2988 25.2546 17.5419 25.0781 17.7207C24.9016 17.8995 24.6617 18 24.4121 18C24.1627 17.9999 23.9235 17.8993 23.7471 17.7207C23.5706 17.5419 23.4717 17.2988 23.4717 17.0459V10.9531C23.4717 10.8281 23.4958 10.7044 23.543 10.5889C23.5903 10.4732 23.6597 10.3679 23.7471 10.2793C23.8345 10.1908 23.9385 10.1202 24.0527 10.0723C24.1667 10.0245 24.2888 10 24.4121 10ZM28.1777 13.0117C28.6974 13.0119 29.1182 13.4335 29.1182 13.9531C29.1179 14.4726 28.6972 14.8934 28.1777 14.8936C27.6581 14.8936 27.2366 14.4727 27.2363 13.9531C27.2363 13.4333 27.6579 13.0117 28.1777 13.0117Z" fill="#1C1C1C"/>
</svg>
